<?xml version="1.0" encoding="UTF-8"?>
<svg id="b" data-name="Layer 2" xmlns="http://www.w3.org/2000/svg" viewBox="0 0 115 114.99999">
  <defs>
    <style>
      .d {
        fill: #eeeef0;
      }
    </style>
  </defs>
  <g id="c" data-name="Layer 1">
    <g>
      <path class="d" d="m100.3949,20.37017c-6.42395-5.03589-13.88025-7.90021-21.62396-8.83691,0,0-.18805-.01324-.19037-.01324-.53717,0-1.00415.30676-1.18018.71906-.47455,1.51056-1.12836,3.12775-1.90149,5.04016-.22595.55872-.46204,1.14264-.70929,1.76111l-3.17273,8.45782c-.07001.19812-1.6875,4.74237-1.75781,4.94116l-.01935.22662c.0014.25342.07123.42725.20215.56982.13135.1416.34222.25641.64697.3233l-.00024.00116c8.4411,2.14075,15.94696,6.79926,19.72375,14.63434,6.28662,13.04193,2.27826,27.44971-12.54175,35.92041-4.07568,2.32953-8.8233,3.35229-13.54395,4.01251-.27814.07861-.51776.21729-.82141.53766-.05328.05945-.10706.11957-.16034.17902-.01331.01562-.02673.03156-.04034.04791l-.00146-.00122c-1.29205,1.44293-2.57471,2.8808-3.85486,4.31616-.00049.00006-.00104.00018-.00153.00024l-.74017.8302c-.02295.02576-.04633.05182-.06927.07758-.75916.85162-1.51569,1.70068-2.2702,2.54749-.41809.4693-.83618.9386-1.25433,1.40778-.42212.47369-.8443.94739-1.26648,1.42096-.42389.47546-.84784.95081-1.27191,1.42603-.42548.47687-.85107.95361-1.27686,1.43018-.42694.47791-.854.95569-1.28131,1.43329-.42822.47864-.85669.95709-1.28534,1.43536-.20386.22748-.40784.4549-.61182.68225-.10309.11499-.20624.22992-.30939.34479-.0517.05756-.10376.11469-.15503.17261-.03943.04456-.08423.08276-.10974.13843-.0387.08459-.03564.18549.00049.27118.04602.10925.13971.17578.25659.18274.15875.00934.31769.01697.47656.02454.32037.01532.64093.0282.96149.03864.64111.02087,1.28253.03217,1.92395.03387.05774.00018.11548.00024.17316.00024,9.61505,0,19.22571-2.14374,27.96326-6.11578,16.2796-7.39105,29.47546-21.7168,34.08557-38.67334,1.07086-3.63922,1.60938-7.4635,1.61407-11.30322v-.10077c-.0144-11.5614-4.86865-23.26086-14.6051-30.54211Z"/>
      <path class="d" d="m28.20575,90.67406h.00006c-.00043.0011-.00092.00226-.00134.00336l.0014-.00311.27008-.70056h.00122c-.00104-.00049-.0022-.00098-.00323-.00146.74219-1.92847,1.4812-3.88464,2.21863-5.88672.02734-.10852.03967-.20715.03967-.29602-.0014-.19879-.05664-.34821-.16895-.48492-.05896-.07098-.13678-.13837-.23474-.20001-9.68988-4.52728-17.77057-11.85706-20.78168-22.09576-2.67365-9.09137.56848-18.13177,5.08569-26.31213l1.17084-2.06049c.08618-.14716.17004-.29657.25677-.44312.01099-.0188.02002-.03845.02814-.05829l.00427-.00751-.00024-.00031-.00037.00037-.00012.00012c0-.00006.00006-.00006.00006-.00012.03784-.03644.07678-.07367.11481-.10999.3573-.34576.04095-.85541-.36786-.85541-.10266,0-.21124.03217-.31635.10718C5.55261,38.65038.01178,50.80565,0,62.94371v.07764c.00037.42969.00775.85822.02203,1.2876.29449,15.47046,9.84607,28.48248,23.20758,35.88586.17017.05762.3277.08441.47046.08441.37683-.00604.65991-.16675.87347-.55127,1.22906-2.95422,2.43597-5.96222,3.6322-9.05383v-.00006Z"/>
      <path class="d" d="m82.75153,53.77336c-2.66034-4.07678-7.44818-3.03558-11.66901-3.0965-6.36255.36273-13.88916,1.59717-9.43982-7.41589,2.80542-7.10443,5.11285-14.37903,7.83606-21.51257,1.86664-5.60095,5.97961-11.30328,4.39081-17.38574-.82214-2.59448-3.38812-4.67358-6.31348-4.32422-3.37537.5282-5.18542,3.28735-7.18695,5.6441-4.11664,4.91956-8.54913,9.83826-12.86072,14.55573-7.73438,8.54633-15.46875,17.09265-23.20306,25.63898-1.31268,1.45044-2.62537,2.90094-3.93805,4.35144-1.59216,1.75928-3.5575,3.45166-3.66742,5.91754-.10803,2.42474.85046,4.64496,2.91522,6.12262,3.73718,2.55243,8.59119,1.72308,12.91888,1.7627,2.13043-.10956,4.53729-.18329,6.47418.8327,2.67426,1.40741,1.07867,4.49518.37573,6.56-1.01959,2.99506-2.05994,5.98358-3.12524,8.96393-2.72913,7.67029-5.64734,15.27917-8.82025,22.78766-1.19147,3.16882-2.50952,8.16882.67407,10.7251,2.33936,1.87842,5.86462,1.1449,7.99011-.66547,14.21014-15.47174,27.8916-31.51562,42.38177-46.78864,3.3609-3.17023,7.2569-8.13873,4.26715-12.67346Z"/>
    </g>
  </g>
</svg>