<?xml version="1.0" encoding="utf-8"?>
<!-- Generator: Adobe Illustrator 25.0.0, SVG Export Plug-In . SVG Version: 6.00 Build 0)  -->
<svg version="1.1" id="Layer_1" xmlns="http://www.w3.org/2000/svg" xmlns:xlink="http://www.w3.org/1999/xlink" x="0px" y="0px"
	 viewBox="0 0 30 30" style="enable-background:new 0 0 183.6 31;" xml:space="preserve">
<style type="text/css">
	.st0{fill-rule:evenodd;clip-rule:evenodd;fill:#1C3355;}
	.st1{fill-rule:evenodd;clip-rule:evenodd;fill:#F1BC1C;}
	.st2{fill:none;stroke:#EFBB1B;stroke-width:0.25;}
</style>
<desc>Created with Sketch.</desc>
<g id="Page-1">
	<g id="sprite">
		<g id="logo">
			<polygon id="Fill-4" class="st1" points="11.2,30.6 17.5,30.6 29.7,15.7 26.5,11.8 			"/>
			<polygon id="Stroke-5" class="st2" points="26.5,11.8 11.2,30.6 17.5,30.6 29.7,15.7 			"/>
			<polygon id="Fill-6" class="st1" points="0.2,30.6 6.5,30.6 18.6,15.7 15.5,11.8 			"/>
			<polygon id="Stroke-7" class="st2" points="15.5,11.8 0.2,30.6 6.5,30.6 18.6,15.7 			"/>
			<polygon id="Fill-9" class="st1" points="26.5,19.5 11.2,0.8 17.5,0.7 29.7,15.7 			"/>
			<polygon id="Stroke-10" class="st2" points="26.5,19.5 11.2,0.8 17.5,0.7 29.7,15.7 			"/>
			<polygon id="Fill-11" class="st1" points="0.2,0.8 15.5,19.5 18.6,15.7 6.5,0.7 			"/>
			<polygon id="Stroke-12" class="st2" points="15.5,19.5 0.2,0.8 6.5,0.7 18.6,15.7 			"/>
		</g>
	</g>
</g>
</svg>
