<?xml version="1.0" encoding="UTF-8"?>
<svg id="b" data-name="Layer 2" xmlns="http://www.w3.org/2000/svg" viewBox="0 0 222.83 223">
  <defs>
    <style>
      .d {
        fill: #c1cd23;
      }

      .e {
        fill: #5f6062;
      }
    </style>
  </defs>
  <g id="c" data-name="Layer 1">
    <g>
      <path class="d" d="M176.38,24.45c-16.74,26.72-38.7,48.52-64.03,67.03-18.74,13.69-38.71,25.25-61.1,31.79-6.04,1.76-9.11,4.85-10.06,10.64-.57,3.5-1.23,7.02-1.37,10.56-.58,14.57,4.32,21.26,18.2,25.38,3.49,1.03,7.05,.64,12.27,.89,16.24-.77,32.69-6.66,48.57-14.41,17.5-8.54,33.41-19.57,48.14-32.23,17.73-15.26,33.39-32.39,45.41-52.63,.78-1.31,1.27-2.57,1.45-3.85-7.71-17.99-20.01-33.54-35.43-45.18-.67,.24-1.33,.87-2.04,2.01Z"/>
      <path class="e" d="M218.48,94.38c-9.87,14.28-21.87,26.68-34.66,38.27-22.85,20.71-48.24,37.61-77.44,48.07-15.97,5.72-32.36,9.58-49.63,6.71-18.64-3.1-30.92-14.49-34.22-32.49-1.29-7.05-.98-14.18,.62-21.18,.81-3.53-.37-4.95-3.97-4.88-3.37,.06-6.78,.03-10.12-.39-4.97-.62-7.21-.92-7.9,.39,8.35,53.32,54.48,94.12,110.15,94.12,61.58,0,111.5-49.92,111.5-111.5,0-6.7-.59-13.27-1.73-19.64-1.36-.07-1.94,1.53-2.62,2.52Z"/>
      <path class="d" d="M58.49,101.99c.85-.23,1.69-.5,2.49-.86,39.24-17.74,71.14-44.38,96.17-79.34,.89-1.24,2.55-2.67,1.28-4.17-1.3-1.55-2.91-.01-4.31,.62-34.49,15.56-63.05,38.8-87,67.82-3.86,4.68-8.14,9.33-10.41,15.63,1.09,.2,1.46,.38,1.77,.3Z"/>
      <path class="d" d="M3.91,109.01c8.11,3.24,16.45,1.91,24.74,1.57,2.15-.09,3.25-1.95,4.16-3.75,13.52-26.81,33.31-48.49,55.94-67.72,14.92-12.68,31.09-23.61,48.66-32.38,1.2-.6,3.14-.78,2.94-2.58-.01-.13-.05-.22-.08-.33-9.23-2.48-18.94-3.8-28.95-3.8C51.81,0,3.18,46.64,0,105.37c.51,1.66,1.75,2.78,3.91,3.64Z"/>
    </g>
  </g>
</svg>